<svg  xmlns="http://www.w3.org/2000/svg">
<!-- html-icon  -->
    <symbol id="html-icon"  viewBox="0 0 48 48" ><path fill="#E65100" d="M41,5H7l3,34l14,4l14-4L41,5L41,5z"/><path fill="#FF6D00" d="M24 8L24 39.9 35.2 36.7 37.7 8z"/><path fill="#FFF" d="M24,25v-4h8.6l-0.7,11.5L24,35.1v-4.2l4.1-1.4l0.3-4.5H24z M32.9,17l0.3-4H24v4H32.9z"/><path fill="#EEE" d="M24,30.9v4.2l-7.9-2.6L15.7,27h4l0.2,2.5L24,30.9z M19.1,17H24v-4h-9.1l0.7,12H24v-4h-4.6L19.1,17z"/></symbol>


<!-- css-icon  -->
    <symbol id="css-icon"  viewBox="0 0 48 48" ><path fill="#0277BD" d="M41,5H7l3,34l14,4l14-4L41,5L41,5z"/><path fill="#039BE5" d="M24 8L24 39.9 35.2 36.7 37.7 8z"/><path fill="#FFF" d="M33.1 13L24 13 24 17 28.9 17 28.6 21 24 21 24 25 28.4 25 28.1 29.5 24 30.9 24 35.1 31.9 32.5 32.6 21 32.6 21z"/><path fill="#EEE" d="M24,13v4h-8.9l-0.3-4H24z M19.4,21l0.2,4H24v-4H19.4z M19.8,27h-4l0.3,5.5l7.9,2.6v-4.2l-4.1-1.4L19.8,27z"/></symbol>

<symbol id="sass-icon" viewBox="0 0 48 48" ><path fill="#f06292" d="M39.867,25.956c-1.538,0.008-2.87,0.377-3.986,0.928c-0.408-0.815-0.822-1.532-0.891-2.065	c-0.081-0.622-0.175-0.994-0.077-1.735c0.098-0.741,0.527-1.791,0.521-1.87c-0.006-0.079-0.096-0.456-0.983-0.463	c-0.887-0.006-1.646,0.171-1.735,0.405c-0.089,0.234-0.26,0.761-0.366,1.311c-0.155,0.804-1.771,3.673-2.688,5.173	c-0.3-0.586-0.555-1.102-0.608-1.51c-0.081-0.622-0.175-0.994-0.077-1.735c0.098-0.741,0.527-1.791,0.521-1.87	c-0.006-0.079-0.096-0.456-0.983-0.463c-0.887-0.006-1.646,0.171-1.735,0.405c-0.089,0.234-0.185,0.781-0.366,1.311	c-0.182,0.529-2.329,5.314-2.892,6.555c-0.287,0.632-0.536,1.14-0.712,1.486c-0.001-0.001-0.001-0.002-0.001-0.002	s-0.011,0.023-0.029,0.062c-0.151,0.295-0.24,0.458-0.24,0.458s0.001,0.002,0.003,0.006c-0.12,0.217-0.248,0.418-0.311,0.418	c-0.044,0-0.133-0.577,0.019-1.369c0.32-1.66,1.087-4.248,1.08-4.338c-0.004-0.046,0.143-0.497-0.501-0.733	c-0.626-0.229-0.849,0.153-0.906,0.154c-0.055,0.001-0.096,0.135-0.096,0.135s0.697-2.911-1.33-2.911	c-1.268,0-3.024,1.387-3.889,2.644c-0.546,0.298-1.715,0.936-2.954,1.617c-0.476,0.262-0.962,0.529-1.423,0.783	c-0.031-0.035-0.063-0.069-0.095-0.104c-2.459-2.623-7.003-4.478-6.811-8.005c0.07-1.282,0.516-4.658,8.733-8.752	c6.731-3.354,12.12-2.431,13.051-0.386c1.33,2.923-2.88,8.354-9.87,9.138c-2.663,0.299-4.066-0.734-4.415-1.118	c-0.367-0.405-0.422-0.423-0.559-0.347c-0.223,0.124-0.082,0.481,0,0.694c0.209,0.543,1.065,1.506,2.525,1.986	c1.285,0.422,4.412,0.653,8.193-0.81c4.236-1.638,7.543-6.196,6.571-10.005c-0.988-3.874-7.412-5.148-13.492-2.988	C12.44,9.332,8.523,11.35,5.706,13.984c-3.349,3.132-3.883,5.859-3.663,6.998c0.782,4.048,6.361,6.684,8.595,8.637	c-0.11,0.061-0.214,0.118-0.308,0.17c-1.12,0.554-5.373,2.78-6.437,5.131c-1.207,2.667,0.192,4.581,1.118,4.839	c2.869,0.798,5.813-0.638,7.396-2.998c1.582-2.359,1.389-5.432,0.663-6.834c-0.009-0.017-0.019-0.034-0.028-0.052	c0.289-0.171,0.584-0.345,0.876-0.517c0.57-0.335,1.13-0.647,1.615-0.911c-0.272,0.744-0.471,1.637-0.574,2.926	c-0.122,1.514,0.499,3.471,1.311,4.241c0.358,0.339,0.788,0.347,1.06,0.347c0.945,0,1.376-0.786,1.851-1.716	c0.582-1.14,1.099-2.468,1.099-2.468s-0.648,3.586,1.118,3.586c0.644,0,1.291-0.835,1.58-1.26c0.001,0.005,0.001,0.007,0.001,0.007	s0.017-0.028,0.05-0.083c0.067-0.102,0.105-0.167,0.105-0.167s0.001-0.007,0.003-0.019c0.259-0.449,0.833-1.473,1.693-3.162	c1.112-2.182,2.178-4.916,2.178-4.916s0.099,0.668,0.424,1.774c0.191,0.65,0.597,1.369,0.918,2.059	c-0.258,0.358-0.416,0.563-0.416,0.563s0.001,0.004,0.004,0.011c-0.206,0.274-0.437,0.569-0.679,0.857	c-0.878,1.045-1.923,2.239-2.063,2.583c-0.165,0.406-0.126,0.704,0.193,0.945c0.233,0.175,0.647,0.203,1.08,0.174	c0.789-0.053,1.343-0.249,1.617-0.368c0.427-0.151,0.924-0.388,1.39-0.731c0.861-0.633,1.38-1.538,1.33-2.738	c-0.028-0.661-0.238-1.316-0.505-1.934c0.078-0.112,0.156-0.226,0.235-0.34c1.357-1.984,2.41-4.164,2.41-4.164	s0.099,0.668,0.424,1.774c0.164,0.559,0.489,1.17,0.781,1.768c-1.276,1.037-2.067,2.242-2.342,3.032	c-0.508,1.462-0.11,2.124,0.636,2.275c0.338,0.068,0.816-0.087,1.175-0.239c0.447-0.148,0.984-0.395,1.486-0.764	c0.861-0.633,1.689-1.519,1.639-2.718c-0.023-0.546-0.171-1.088-0.372-1.608c1.082-0.451,2.482-0.701,4.266-0.493	c3.827,0.447,4.577,2.836,4.434,3.836c-0.144,1-0.946,1.55-1.215,1.716c-0.268,0.166-0.35,0.224-0.328,0.347	c0.033,0.179,0.157,0.173,0.386,0.134c0.315-0.053,2.009-0.813,2.082-2.659C46.089,28.509,43.844,25.935,39.867,25.956z M10.37,35.9	c-1.268,1.383-3.038,1.905-3.798,1.465c-0.82-0.475-0.495-2.511,1.06-3.979c0.948-0.894,2.172-1.718,2.984-2.225	c0.185-0.111,0.456-0.274,0.786-0.472c0.055-0.031,0.086-0.048,0.086-0.048l-0.001-0.002c0.064-0.038,0.129-0.077,0.196-0.118	C12.25,32.61,11.701,34.449,10.37,35.9z M19.605,29.623c-0.441,1.076-1.365,3.83-1.928,3.682c-0.483-0.127-0.777-2.22-0.096-4.28	c0.342-1.037,1.074-2.276,1.504-2.757c0.692-0.774,1.454-1.027,1.639-0.713C20.959,25.955,19.882,28.948,19.605,29.623z M27.234,33.263c-0.187,0.098-0.359,0.159-0.438,0.112c-0.059-0.035,0.077-0.164,0.077-0.164s0.954-1.027,1.33-1.494	c0.219-0.272,0.472-0.595,0.748-0.955c0.002,0.036,0.003,0.072,0.003,0.107C28.952,32.099,27.764,32.929,27.234,33.263z M33.111,31.923c-0.14-0.099-0.116-0.42,0.343-1.421c0.18-0.393,0.592-1.054,1.306-1.686c0.083,0.26,0.133,0.509,0.132,0.741	C34.883,31.105,33.779,31.683,33.111,31.923z"/></symbol>

<symbol  id="figma-icon" viewBox="0 0 48 48"><path fill="#e64a19" d="M26,17h-8c-3.866,0-7-3.134-7-7v0c0-3.866,3.134-7,7-7h8V17z"/><path fill="#7c4dff" d="M25,31h-7c-3.866,0-7-3.134-7-7v0c0-3.866,3.134-7,7-7h7V31z"/><path fill="#66bb6a" d="M18,45L18,45c-3.866,0-7-3.134-7-7v0c0-3.866,3.134-7,7-7h7v7C25,41.866,21.866,45,18,45z"/><path fill="#ff7043" d="M32,17h-7V3h7c3.866,0,7,3.134,7,7v0C39,13.866,35.866,17,32,17z"/><circle cx="32" cy="24" r="7" fill="#29b6f6"/></symbol>


<symbol id="github-icon" fill="#000000" viewBox="0 0 50 50"><path d="M17.791,46.836C18.502,46.53,19,45.823,19,45v-5.4c0-0.197,0.016-0.402,0.041-0.61C19.027,38.994,19.014,38.997,19,39 c0,0-3,0-3.6,0c-1.5,0-2.8-0.6-3.4-1.8c-0.7-1.3-1-3.5-2.8-4.7C8.9,32.3,9.1,32,9.7,32c0.6,0.1,1.9,0.9,2.7,2c0.9,1.1,1.8,2,3.4,2 c2.487,0,3.82-0.125,4.622-0.555C21.356,34.056,22.649,33,24,33v-0.025c-5.668-0.182-9.289-2.066-10.975-4.975 c-3.665,0.042-6.856,0.405-8.677,0.707c-0.058-0.327-0.108-0.656-0.151-0.987c1.797-0.296,4.843-0.647,8.345-0.714 c-0.112-0.276-0.209-0.559-0.291-0.849c-3.511-0.178-6.541-0.039-8.187,0.097c-0.02-0.332-0.047-0.663-0.051-0.999 c1.649-0.135,4.597-0.27,8.018-0.111c-0.079-0.5-0.13-1.011-0.13-1.543c0-1.7,0.6-3.5,1.7-5c-0.5-1.7-1.2-5.3,0.2-6.6 c2.7,0,4.6,1.3,5.5,2.1C21,13.4,22.9,13,25,13s4,0.4,5.6,1.1c0.9-0.8,2.8-2.1,5.5-2.1c1.5,1.4,0.7,5,0.2,6.6c1.1,1.5,1.7,3.2,1.6,5 c0,0.484-0.045,0.951-0.11,1.409c3.499-0.172,6.527-0.034,8.204,0.102c-0.002,0.337-0.033,0.666-0.051,0.999 c-1.671-0.138-4.775-0.28-8.359-0.089c-0.089,0.336-0.197,0.663-0.325,0.98c3.546,0.046,6.665,0.389,8.548,0.689 c-0.043,0.332-0.093,0.661-0.151,0.987c-1.912-0.306-5.171-0.664-8.879-0.682C35.112,30.873,31.557,32.75,26,32.969V33 c2.6,0,5,3.9,5,6.6V45c0,0.823,0.498,1.53,1.209,1.836C41.37,43.804,48,35.164,48,25C48,12.318,37.683,2,25,2S2,12.318,2,25 C2,35.164,8.63,43.804,17.791,46.836z"/></symbol>


<symbol id="git-icon" fill="#000000" viewBox="0 0 50 50"><path d="M 46.792969 22.089844 L 27.910156 3.207031 C 27.109375 2.402344 26.054688 2 25 2 C 23.945313 2 22.890625 2.402344 22.089844 3.207031 L 18.355469 6.941406 L 22.976563 11.5625 C 24.511719 10.660156 26.511719 10.855469 27.828125 12.171875 C 29.144531 13.488281 29.335938 15.488281 28.433594 17.019531 L 32.976563 21.5625 C 34.511719 20.660156 36.511719 20.855469 37.828125 22.171875 C 39.390625 23.734375 39.390625 26.265625 37.828125 27.828125 C 36.265625 29.390625 33.734375 29.390625 32.171875 27.828125 C 30.855469 26.511719 30.660156 24.511719 31.5625 22.976563 L 27.019531 18.433594 C 26.695313 18.625 26.355469 18.765625 26 18.855469 L 26 31.140625 C 27.722656 31.585938 29 33.136719 29 35 C 29 37.210938 27.210938 39 25 39 C 22.789063 39 21 37.210938 21 35 C 21 33.136719 22.277344 31.585938 24 31.140625 L 24 18.855469 C 23.332031 18.683594 22.695313 18.351563 22.171875 17.828125 C 20.855469 16.511719 20.664063 14.511719 21.566406 12.980469 L 16.941406 8.355469 L 3.207031 22.089844 C 1.597656 23.695313 1.597656 26.304688 3.207031 27.910156 L 22.089844 46.792969 C 22.890625 47.597656 23.945313 48 25 48 C 26.054688 48 27.109375 47.597656 27.910156 46.792969 L 46.792969 27.910156 C 48.402344 26.304688 48.402344 23.695313 46.792969 22.089844 Z"/></symbol>


<symbol id="telegram-icon"  viewBox="0 0 48 48"><path fill="#29b6f6" d="M24 4A20 20 0 1 0 24 44A20 20 0 1 0 24 4Z"/><path fill="#fff" d="M33.95,15l-3.746,19.126c0,0-0.161,0.874-1.245,0.874c-0.576,0-0.873-0.274-0.873-0.274l-8.114-6.733 l-3.97-2.001l-5.095-1.355c0,0-0.907-0.262-0.907-1.012c0-0.625,0.933-0.923,0.933-0.923l21.316-8.468 c-0.001-0.001,0.651-0.235,1.126-0.234C33.667,14,34,14.125,34,14.5C34,14.75,33.95,15,33.95,15z"/><path fill="#b0bec5" d="M23,30.505l-3.426,3.374c0,0-0.149,0.115-0.348,0.12c-0.069,0.002-0.143-0.009-0.219-0.043 l0.964-5.965L23,30.505z"/><path fill="#cfd8dc" d="M29.897,18.196c-0.169-0.22-0.481-0.26-0.701-0.093L16,26c0,0,2.106,5.892,2.427,6.912 c0.322,1.021,0.58,1.045,0.58,1.045l0.964-5.965l9.832-9.096C30.023,18.729,30.064,18.416,29.897,18.196z"/></symbol>

<symbol  id="linkedin-icon"  viewBox="0 0 48 48" ><path fill="#0288d1" d="M24 4A20 20 0 1 0 24 44A20 20 0 1 0 24 4Z"/><path fill="#fff" d="M14 19H18V34H14zM15.988 17h-.022C14.772 17 14 16.11 14 14.999 14 13.864 14.796 13 16.011 13c1.217 0 1.966.864 1.989 1.999C18 16.11 17.228 17 15.988 17zM35 24.5c0-3.038-2.462-5.5-5.5-5.5-1.862 0-3.505.928-4.5 2.344V19h-4v15h4v-8c0-1.657 1.343-3 3-3s3 1.343 3 3v8h4C35 34 35 24.921 35 24.5z"/></symbol>


<symbol id="gmail-icon"  viewBox="0 0 48 48" ><path fill="#e0e0e0" d="M5.5,40.5h37c1.933,0,3.5-1.567,3.5-3.5V11c0-1.933-1.567-3.5-3.5-3.5h-37C3.567,7.5,2,9.067,2,11v26C2,38.933,3.567,40.5,5.5,40.5z"/><path fill="#d9d9d9" d="M26,40.5h16.5c1.933,0,3.5-1.567,3.5-3.5V11c0-1.933-1.567-3.5-3.5-3.5h-37C3.567,7.5,2,9.067,2,11L26,40.5z"/><path fill="#eee" d="M6.745,40.5H42.5c1.933,0,3.5-1.567,3.5-3.5V11.5L6.745,40.5z"/><path fill="#e0e0e0" d="M25.745,40.5H42.5c1.933,0,3.5-1.567,3.5-3.5V11.5L18.771,31.616L25.745,40.5z"/><path fill="#ca3737" d="M42.5,9.5h-37C3.567,9.5,2,9.067,2,11v26c0,1.933,1.567,3.5,3.5,3.5H7V12h34v28.5h1.5c1.933,0,3.5-1.567,3.5-3.5V11C46,9.067,44.433,9.5,42.5,9.5z"/><path fill="#f5f5f5" d="M42.5,7.5H24H5.5C3.567,7.5,2,9.036,2,11c0,1.206,1.518,2.258,1.518,2.258L24,27.756l20.482-14.497c0,0,1.518-1.053,1.518-2.258C46,9.036,44.433,7.5,42.5,7.5z"/><path fill="#e84f4b" d="M43.246,7.582L24,21L4.754,7.582C3.18,7.919,2,9.297,2,11c0,1.206,1.518,2.258,1.518,2.258L24,27.756l20.482-14.497c0,0,1.518-1.053,1.518-2.258C46,9.297,44.82,7.919,43.246,7.582z"/></symbol>



<symbol id="js-icon" viewBox="0 0 48 48"  baseProfile="basic"><path fill="#f7df1e" d="M6,42V6h36v36H6z"/><path fill="#000001" d="M29.538,32.947c0.692,1.124,1.444,2.201,3.037,2.201c1.338,0,2.04-0.665,2.04-1.585 c0-1.101-0.726-1.492-2.198-2.133l-0.807-0.344c-2.329-0.988-3.878-2.226-3.878-4.841c0-2.41,1.845-4.244,4.728-4.244 c2.053,0,3.528,0.711,4.592,2.573l-2.514,1.607c-0.553-0.988-1.151-1.377-2.078-1.377c-0.946,0-1.545,0.597-1.545,1.377 c0,0.964,0.6,1.354,1.985,1.951l0.807,0.344C36.452,29.645,38,30.839,38,33.523C38,36.415,35.716,38,32.65,38 c-2.999,0-4.702-1.505-5.65-3.368L29.538,32.947z M17.952,33.029c0.506,0.906,1.275,1.603,2.381,1.603 c1.058,0,1.667-0.418,1.667-2.043V22h3.333v11.101c0,3.367-1.953,4.899-4.805,4.899c-2.577,0-4.437-1.746-5.195-3.368 L17.952,33.029z"/></symbol>

    </svg>
